#!OML:ASF H:\Not Pregnant\Project 1\Capture day 1\Session 1\non-pregnant.ASF
:FULLY-SPECIFIED
:DEGREES
562
root -7.46886 16.6766 -26.4592 -169.449 34.4711 -179.073
lowerback -0.65492 0.927032 3.98623
upperback -8.082 1.88397 0.00520583
thorax -7.99478 0.858026 -2.36711
lowerneck 25.426 -16.0591 -29.4366
upperneck -14.5708 -25.3519 44.6831
head 2.97735 -15.4437 21.0004
rclavicle -8.87077e-015 -1.19271e-014
rhumerus -45.0929 40.4799 -117.06
rradius 72.2549
rwrist -25.3974
rhand -19.0364 -10.0895
rfingers 7.12502
rthumb 7.27001 -39.9446
lclavicle -8.87077e-015 -1.19271e-014
lhumerus -51.0276 5.64855 82.7513
lradius 22.8657
lwrist 21.9833
lhand -25.0063 -11.9587
lfingers 7.12502
lthumb 1.50546 18.0158
rfemur -25.1587 25.9555 19.1825
rtibia 35.9691
rfoot -21.3135 23.0886
rtoes -7.06396
lfemur -27.5423 -12.7347 -11.3129
ltibia 34.8811
lfoot -21.1776 -19.9578
ltoes -3.37362
563
root -7.4922 16.6883 -26.498 -169.215 36.1543 -179.316
lowerback -0.757417 0.786678 3.61152
upperback -8.11114 1.67315 0.0271701
thorax -7.98657 0.77864 -2.11984
lowerneck 25.6391 -16.0905 -29.408
upperneck -15.0295 -25.3503 44.9903
head 2.89202 -15.5178 21.2067
rclavicle -8.77137e-014 -1.5704e-014
rhumerus -46.284 40.343 -117.23
rradius 72.7227
rwrist -26.0355
rhand -19.6138 -10.1054
rfingers 7.12502
rthumb 6.71265 -39.979
lclavicle -8.77137e-014 -1.5704e-014
lhumerus -50.7639 4.82109 83.1285
lradius 22.2381
lwrist 17.2641
lhand -24.7418 -13.9477
lfingers 7.12502
lthumb 1.76096 16.0248
rfemur -25.7734 27.0225 18.4281
rtibia 36.0274
rfoot -21.3476 23.3168
rtoes -6.92388
lfemur -27.2648 -11.9636 -11.8425
ltibia 34.6248
lfoot -21.5903 -18.6021
ltoes -4.5203
564
root -7.51615 16.699 -26.5372 -169.02 37.8484 -179.612
lowerback -0.846962 0.640534 3.22715
upperback -8.16237 1.4572 0.0370751
thorax -8.00785 0.696963 -1.88064
lowerneck 25.8516 -16.1057 -29.4218
upperneck -15.4425 -25.3571 45.2677
head 2.82278 -15.5925 21.403
rclavicle -2.58172e-014 -1.59028e-015
rhumerus -47.3868 40.0813 -117.244
rradius 73.069
rwrist -25.9208
rhand -20.1081 -9.9822
rfingers 7.12502
rthumb 6.23547 -39.8704
lclavicle -2.58172e-014 -1.59028e-015
lhumerus -50.6107 3.78512 83.6154
lradius 21.8827
lwrist 14.1746
lhand -24.8344 -15.8778
lfingers 7.12502
lthumb 1.6715 14.0954
rfemur -26.4471 28.0862 17.5948
rtibia 36.1381
rfoot -21.3718 23.5587
rtoes -6.65511
lfemur -27.0084 -11.2768 -12.4092
ltibia 34.3671
lfoot -21.9156 -17.2095
ltoes -5.48543
565
root -7.54134 16.7083 -26.5767 -168.865 39.5391 -179.957
lowerback -0.923405 0.481449 2.852
upperback -8.22307 1.22521 0.0353728
thorax -8.04521 0.606337 -1.65844
lowerneck 26.0238 -16.1127 -29.4545
upperneck -15.8065 -25.368 45.5073
head 2.76908 -15.6609 21.5741
rclavicle 9.79014e-015 2.74323e-014
rhumerus -48.3796 39.723 -117.096
rradius 73.2973
rwrist -25.1863
rhand -20.473 -9.86287
rfingers 7.12502
rthumb 5.88321 -39.7612
lclavicle 9.79014e-015 2.74323e-014
lhumerus -50.5484 2.57593 84.2418
lradius 21.9108
lwrist 13.312
lhand -24.8716 -17.4011
lfingers 7.12502
lthumb 1.6356 12.5724
rfemur -27.178 29.1227 16.6933
rtibia 36.2999
rfoot -21.3839 23.8285
rtoes -6.26859
lfemur -26.7789 -10.6724 -13.0056
ltibia 34.1153
lfoot -22.161 -15.7984
ltoes -6.34222
566
root -7.56783 16.7163 -26.617 -168.722 41.2249 -180.303
lowerback -1.00897 0.321025 2.54153
upperback -8.2767 0.991886 0.0156868
thorax -8.06639 0.510097 -1.49098
lowerneck 26.14 -16.1186 -29.4765
upperneck -16.1311 -25.3724 45.7236
head 2.72513 -15.7174 21.7241
rclavicle 2.77553e-014 1.66979e-014
rhumerus -49.2049 39.2651 -116.762
rradius 73.4132
rwrist -24.0317
rhand -20.6972 -9.72778
rfingers 7.12502
rthumb 5.66671 -39.632
lclavicle 2.77553e-014 1.66979e-014
lhumerus -50.5355 1.1605 85.0405
lradius 22.3539
lwrist 15.0193
lhand -24.5689 -18.389
lfingers 7.12502
lthumb 1.92789 11.5821
rfemur -27.9633 30.1358 15.7638
rtibia 36.5002
rfoot -21.3849 24.1278
rtoes -5.79919
lfemur -26.5837 -10.1207 -13.5895
ltibia 33.8786
lfoot -22.3274 -14.4138
ltoes -7.04319
567
root -7.59571 16.723 -26.6582 -168.609 42.9023 -180.653
lowerback -1.0725 0.153419 2.28521
upperback -8.32984 0.75101 -0.00884853
thorax -8.09805 0.405906 -1.35888
lowerneck 26.2921 -16.0396 -29.6814
upperneck -16.2612 -25.456 45.5697
head 2.73892 -15.7867 22.3306
rclavicle -2.83268e-014 7.95139e-016
rhumerus -49.9317 38.7243 -116.26
rradius 73.4693
rwrist -22.666
rhand -20.7838 -9.73213
rfingers 7.12502
rthumb 5.58306 -39.6386
lclavicle -2.83268e-014 7.95139e-016
lhumerus -50.5749 -0.130509 85.7554
lradius 23.1187
lwrist 18.7329
lhand -23.7433 -18.8915
lfingers 7.12502
lthumb 2.72526 11.0708
rfemur -28.7692 31.1038 14.8211
rtibia 36.7255
rfoot -21.367 24.4807
rtoes -5.23134
lfemur -26.4037 -9.59252 -14.1703
ltibia 33.6629
lfoot -22.4258 -13.1002
ltoes -7.55087
568
root -7.62465 16.7287 -26.6999 -168.495 44.5696 -180.967
lowerback -1.11997 -0.0166305 2.10833
upperback -8.37479 0.508727 -0.0371421
thorax -8.12862 0.294969 -1.27515
lowerneck 26.322 -16.0145 -29.7028
upperneck -16.5041 -25.4228 45.7268
head 2.70128 -15.807 22.4643
rclavicle 6.90777e-015 2.0276e-014
rhumerus -50.5318 38.1128 -115.592
rradius 73.4774
rwrist -21.2829
rhand -20.7187 -9.99694
rfingers 7.12502
rthumb 5.64597 -39.9017
lclavicle 6.90777e-015 2.0276e-014
lhumerus -50.5966 -1.26168 86.2495
lradius 24.0921
lwrist 23.8444
lhand -22.4051 -18.9033
lfingers 7.12502
lthumb 4.01757 11.0386
rfemur -29.5936 32.0387 13.9007
rtibia 36.9602
rfoot -21.3101 24.8711
rtoes -4.57205
lfemur -26.2459 -9.04461 -14.7156
ltibia 33.4715
lfoot -22.4761 -11.8808
ltoes -7.94116
569
root -7.65354 16.7335 -26.7407 -168.386 46.2958 -181.235
lowerback -1.15024 -0.165998 1.98255
upperback -8.39731 0.293163 -0.0702019
thorax -8.14283 0.192628 -1.2264
lowerneck 26.3087 -15.9823 -29.7115
upperneck -16.7232 -25.37 45.8803
head 2.66616 -15.8121 22.595
rclavicle 7.85448e-014 8.34896e-015
rhumerus -51.0123 37.4599 -114.777
rradius 73.4777
rwrist -20.0767
rhand -20.6355 -10.3354
rfingers 7.12502
rthumb 5.72629 -40.238
lclavicle 7.85448e-014 8.34896e-015
lhumerus -50.5434 -2.15651 86.388
lradius 25.0904
lwrist 29.3823
lhand -20.7436 -18.539
lfingers 7.12502
lthumb 5.62189 11.3664
rfemur -30.4298 32.9685 13.0107
rtibia 37.1961
rfoot -21.1938 25.3446
rtoes -3.76942
lfemur -26.0784 -8.38446 -15.2355
ltibia 33.3003
lfoot -22.5029 -10.7706
ltoes -8.24601
570
root -7.68217 16.7379 -26.7805 -168.288 48.0467 -181.479
lowerback -1.16294 -0.302249 1.89313
upperback -8.41258 0.0952308 -0.112814
thorax -8.15849 0.0956256 -1.20906
lowerneck 26.2939 -15.9311 -29.7352
upperneck -16.9188 -25.3001 46.0458
head 2.63687 -15.8086 22.7485
rclavicle 1.02821e-013 1.76918e-014
rhumerus -51.3704 36.7521 -113.841
rradius 73.4507
rwrist -19.1852
rhand -20.6281 -10.7813
rfingers 7.12502
rthumb 5.73339 -40.6838
lclavicle 1.02821e-013 1.76918e-014
lhumerus -50.4238 -2.82437 86.1658
lradius 25.9566
lwrist 34.4167
lhand -19.0626 -17.964
lfingers 7.12502
lthumb 7.24476 11.892
rfemur -31.2718 33.8624 12.1417
rtibia 37.4251
rfoot -21.0433 25.8768
rtoes -2.8796
lfemur -25.9156 -7.62044 -15.7422
ltibia 33.1472
lfoot -22.5131 -9.79151
ltoes -8.46215
571
root -7.71057 16.7418 -26.8179 -168.205 49.8271 -181.713
lowerback -1.1539 -0.429896 1.80975
upperback -8.41915 -0.0924498 -0.165227
thorax -8.17681 0.00235775 -1.20591
lowerneck 26.2557 -15.8926 -29.7279
upperneck -17.0996 -25.2333 46.202
head 2.60854 -15.8035 22.8836
rclavicle -5.58336e-014 1.31198e-014
rhumerus -51.6056 36.0017 -112.809
rradius 73.4027
rwrist -18.6842
rhand -20.7476 -11.2974
rfingers 7.12502
rthumb 5.61804 -41.203
lclavicle -5.58336e-014 1.31198e-014
lhumerus -50.2298 -3.32032 85.667
lradius 26.5727
lwrist 38.2639
lhand -17.6771 -17.3832
lfingers 7.12502
lthumb 8.58191 12.4223
rfemur -32.1272 34.7185 11.2834
rtibia 37.6434
rfoot -20.8269 26.4557
rtoes -1.90413
lfemur -25.7669 -6.72756 -16.2447
ltibia 33.007
lfoot -22.5115 -8.95627
ltoes -8.62177
572
root -7.73891 16.7455 -26.8533 -168.11 51.6074 -181.916
lowerback -1.13381 -0.556374 1.75317
upperback -8.42265 -0.278142 -0.223361
thorax -8.1985 -0.0922066 -1.22372
lowerneck 26.207 -15.8677 -29.6947
upperneck -17.2667 -25.1753 46.3522
head 2.58293 -15.8013 23.0031
rclavicle -2.68732e-014 1.13307e-014
rhumerus -51.7037 35.1966 -111.695
rradius 73.3095
rwrist -18.5932
rhand -21.0881 -11.8552
rfingers 7.12502
rthumb 5.2893 -41.7692
lclavicle -2.68732e-014 1.13307e-014
lhumerus -49.9839 -3.77403 85.042
lradius 26.9143
lwrist 40.6627
lhand -16.833 -16.9555
lfingers 7.12502
lthumb 9.39648 12.8151
rfemur -32.9885 35.5145 10.4592
rtibia 37.8447
rfoot -20.5634 27.0515
rtoes -0.911453
lfemur -25.6459 -5.72598 -16.7211
ltibia 32.8779
lfoot -22.5018 -8.26301
ltoes -8.71498
573
root -7.76701 16.7494 -26.8862 -168.011 53.3853 -182.098
lowerback -1.08909 -0.689745 1.69053
upperback -8.43047 -0.472506 -0.277266
thorax -8.23962 -0.190559 -1.23291
lowerneck 26.1419 -15.865 -29.6299
upperneck -17.4162 -25.1369 46.4811
head 2.56132 -15.8055 23.0871
rclavicle 3.23398e-014 8.74653e-015
rhumerus -51.6985 34.3419 -110.521
rradius 73.1771
rwrist -18.8814
rhand -21.6653 -12.4318
rfingers 7.12502
rthumb 4.73199 -42.3589
lclavicle 3.23398e-014 8.74653e-015
lhumerus -49.6966 -4.12115 84.3055
lradius 26.9649
lwrist 41.416
lhand -16.5914 -16.7477
lfingers 7.12502
lthumb 9.62962 13.0122
rfemur -33.8447 36.2319 9.67345
rtibia 38.0253
rfoot -20.2266 27.6678
rtoes 0.129917
lfemur -25.551 -4.62822 -17.182
ltibia 32.7598
lfoot -22.4958 -7.67768
ltoes -8.81731
574
root -7.7948 16.7535 -26.9176 -167.887 55.1775 -182.247
lowerback -1.04303 -0.830203 1.62799
upperback -8.44189 -0.675415 -0.3212
thorax -8.28569 -0.292558 -1.23082
lowerneck 26.054 -15.8771 -29.5504
upperneck -17.5319 -25.118 46.5884
head 2.55218 -15.8149 23.1371
rclavicle 8.32287e-014 2.06736e-014
rhumerus -51.5861 33.4509 -109.287
rradius 72.9947
rwrist -19.4588
rhand -22.4314 -12.955
rfingers 7.12502
rthumb 3.99221 -42.8974
lclavicle 8.32287e-014 2.06736e-014
lhumerus -49.379 -4.41448 83.5087
lradius 26.7853
lwrist 40.8284
lhand -16.9586 -16.7123
lfingers 7.12502
lthumb 9.27525 13.0637
rfemur -34.6891 36.8566 8.94276
rtibia 38.1808
rfoot -19.8239 28.2963
rtoes 1.16622
lfemur -25.4843 -3.45033 -17.6243
ltibia 32.6545
lfoot -22.4997 -7.14456
ltoes -9.0377
575
root -7.82243 16.7581 -26.9479 -167.747 56.979 -182.362
lowerback -0.974228 -0.983686 1.54848
upperback -8.46482 -0.893428 -0.332946
thorax -8.35719 -0.399325 -1.18381
lowerneck 25.9532 -15.8841 -29.4934
upperneck -17.6143 -25.1102 46.6638
head 2.55411 -15.8246 23.1609
rclavicle -3.27373e-014 -2.0773e-014
rhumerus -51.4263 32.5543 -107.986
rradius 72.7931
rwrist -20.2496
rhand -23.3599 -13.4177
rfingers 7.12502
rthumb 3.09555 -43.3749
lclavicle -3.27373e-014 -2.0773e-014
lhumerus -49.033 -4.49099 82.598
lradius 26.3901
lwrist 39.1484
lhand -17.7902 -16.7978
lfingers 7.12502
lthumb 8.47281 13.0123
rfemur -35.4788 37.3536 8.30168
rtibia 38.3131
rfoot -19.4004 28.9081
rtoes 2.10505
lfemur -25.4303 -2.22314 -18.0513
ltibia 32.5584
lfoot -22.512 -6.63298
ltoes -9.34756
